<svg xml:space="preserve" viewBox="0.512 114.688 255.488 25.6" version="1.1" xmlns:xlink="http://www.w3.org/1999/xlink" xmlns="http://www.w3.org/2000/svg" style="max-height: 500px" width="1" height="1">

<defs>
</defs>
<g transform="translate(1.4065934065934016 1.4065934065934016) scale(2.81 2.81)" style="stroke: none; stroke-width: 0; stroke-dasharray: none; stroke-linecap: butt; stroke-linejoin: miter; stroke-miterlimit: 10; fill: none; fill-rule: nonzero; opacity: 1;">
	<path stroke-linecap="round" transform="matrix(1 0 0 1 0 0)" style="stroke: none; stroke-width: 1; stroke-dasharray: none; stroke-linecap: butt; stroke-linejoin: miter; stroke-miterlimit: 10; fill: rgb(29,29,27); fill-rule: nonzero; opacity: 1;" d="M 86.5 48.5 h -83 C 1.567 48.5 0 46.933 0 45 s 1.567 -3.5 3.5 -3.5 h 83 c 1.933 0 3.5 1.567 3.5 3.5 S 88.433 48.5 86.5 48.5 z"/>
	<path stroke-linecap="round" transform="matrix(1 0 0 1 0 0)" style="stroke: none; stroke-width: 1; stroke-dasharray: none; stroke-linecap: butt; stroke-linejoin: miter; stroke-miterlimit: 10; fill: rgb(29,29,27); fill-rule: nonzero; opacity: 1;" d="M 86.5 48.5 h -83 C 1.567 48.5 0 46.933 0 45 s 1.567 -3.5 3.5 -3.5 h 83 c 1.933 0 3.5 1.567 3.5 3.5 S 88.433 48.5 86.5 48.5 z"/>
</g>
</svg>