<?xml version="1.0" encoding="iso-8859-1"?>
<!-- Uploaded to: SVG Repo, www.svgrepo.com, Generator: SVG Repo Mixer Tools -->
<!DOCTYPE svg PUBLIC "-//W3C//DTD SVG 1.1//EN" "http://www.w3.org/Graphics/SVG/1.1/DTD/svg11.dtd">
<svg fill="#000000" version="1.1" id="Capa_1" xmlns="http://www.w3.org/2000/svg" xmlns:xlink="http://www.w3.org/1999/xlink" 
	 width="45px" height="45px" viewBox="0 0 75.711 75.711"
	 xml:space="preserve">
<g>
	<path d="M46.069,75.711V65.74c-18.33-1.756-32.017-12.765-32.017-25.912c0-1.772,0.254-3.556,0.762-5.304l1.119-3.869l1.121,3.866
		c2.844,9.792,14.677,17.454,29.01,18.909v-9.865l16.079,16.072L46.069,75.711z M16.406,39.084
		c-0.014,0.249-0.021,0.497-0.021,0.744c0,12.169,13.3,22.35,30.936,23.677l1.081,0.082v6.485l10.44-10.436l-10.44-10.434v6.761
		l-1.252-0.096C32.997,54.803,21.244,48.245,16.406,39.084z M59.78,45.056l-1.119-3.866c-2.848-9.792-14.682-17.452-29.013-18.908
		v9.867l-16.08-16.073L29.647,0v9.97c18.329,1.756,32.017,12.765,32.017,25.913c0,1.773-0.253,3.555-0.76,5.305L59.78,45.056z
		 M27.309,19.748l1.255,0.096c14.151,1.065,25.908,7.624,30.742,16.783c0.011-0.247,0.021-0.496,0.021-0.743
		c0-12.17-13.299-22.349-30.935-23.675l-1.083-0.083V5.639l-10.44,10.436l10.44,10.435V19.748L27.309,19.748z"/>
</g>
</svg>